<svg width="49" height="48" viewBox="0 0 49 48" fill="none" xmlns="http://www.w3.org/2000/svg">
<g clip-path="url(#clip0_6191_267)">
<path d="M24.6652 35.3454L41.6008 23.4102L18.2115 19.1537L1.00977 30.4234L24.6652 35.3454Z" fill="#F4D177"/>
<path d="M24.3355 23.4965L7.3999 12.7726L30.7907 8.94702L47.8851 18.939L24.3355 23.4965Z" fill="#FF6666"/>
<path d="M18.3128 14.2393L4.44678 5.46009L23.5976 2.32697L37.6526 10.3918L18.3128 14.2393Z" fill="#02A9F4"/>
<path d="M25.9339 36.0893C25.6995 35.7187 25.3789 35.4602 25.0251 35.3937L1.27441 31.1371C1.27441 31.1371 2.29207 34.0798 2.25579 36.0379C2.22851 37.6241 1.28801 40.6256 1.28801 40.6256L25.0372 44.8822C25.391 44.9487 25.7116 44.805 25.9445 44.5208C26.1773 44.2365 26.3225 43.8131 26.321 43.3202L26.3135 37.426C26.3134 36.9331 26.1682 36.4566 25.9339 36.0893ZM47.7263 19.7147L23.9771 23.5388C23.6218 23.5994 23.3013 23.8307 23.0669 24.1648C22.8209 24.517 22.6885 24.9359 22.6874 25.3655L22.6814 30.6638C22.6798 31.1084 22.8235 31.488 23.0564 31.7405C23.2892 31.9975 23.6098 32.1261 23.9636 32.0671L47.7143 28.2414C47.7143 28.2414 47.0324 26.5509 46.8388 23.87C46.7118 22.1144 47.7263 19.7147 47.7263 19.7147ZM18.0089 21.2571L37.4516 18.1224C37.4516 18.1224 36.5973 16.6859 36.5156 14.69C36.4506 13.1099 37.4622 11.1411 37.4622 11.1411L18.018 14.2741C17.7291 14.3226 17.466 14.5131 17.274 14.7852C17.0819 15.0559 16.9639 15.4037 16.9639 15.768L16.9579 20.1048C16.9564 20.4661 17.0744 20.7791 17.2649 20.9878C17.4555 21.1966 17.7185 21.3008 18.0089 21.2571Z" fill="#FFF3E4"/>
<path d="M31.0906 30.8171L25.524 34.7402C25.4071 34.6918 25.2855 34.6554 25.1611 34.6317L1.41042 30.375C0.997635 30.2993 0.587854 30.5799 0.512198 31.0003C0.494207 31.1004 0.496134 31.2031 0.51787 31.3025C0.539606 31.4019 0.580723 31.4961 0.638871 31.5795C0.697018 31.663 0.771054 31.7342 0.856745 31.7891C0.942435 31.8439 1.0381 31.8813 1.13826 31.8992L24.8814 36.1544C24.9796 36.1732 25.1339 36.2737 25.2806 36.506C25.4454 36.763 25.5391 37.0979 25.5391 37.4268L25.5467 43.3224C25.5482 43.6104 25.4727 43.8752 25.3455 44.0302C25.2548 44.1383 25.2034 44.1239 25.1731 44.1201L1.42401 39.8635C1.01273 39.7872 0.601448 40.0685 0.525792 40.4888C0.507788 40.589 0.509706 40.6917 0.531436 40.7911C0.553167 40.8905 0.594283 40.9846 0.652432 41.0681C0.710582 41.1516 0.784623 41.2228 0.870319 41.2776C0.956016 41.3325 1.05169 41.3699 1.15185 41.3877L24.8935 45.6427C25.0009 45.6633 25.1067 45.6731 25.211 45.6731C25.6278 45.6731 26.0219 45.5156 26.3449 45.2207L42.496 33.6821C42.9587 33.354 43.2672 32.6871 43.2656 31.8661L43.2619 28.9586L31.0906 30.8171Z" fill="#FBAC0F"/>
<path d="M47.5916 27.4772L23.8364 31.3035C23.7804 31.3148 23.7125 31.3132 23.6247 31.2157C23.5189 31.0993 23.4539 30.8944 23.4553 30.6646L23.4613 25.3654C23.4613 25.1008 23.5476 24.8256 23.7003 24.6094C23.8212 24.4378 23.9694 24.3251 24.0995 24.3032L47.8487 20.479C47.9491 20.463 48.0454 20.4273 48.132 20.374C48.2187 20.3206 48.2939 20.2507 48.3535 20.1683C48.4131 20.0858 48.4558 19.9924 48.4792 19.8934C48.5025 19.7944 48.5062 19.6918 48.4898 19.5914C48.4218 19.1695 48.0165 18.8769 47.6038 18.9502C47.6038 18.9502 28.612 22.0392 23.4051 22.9073L20.2326 20.8985L17.2341 21.375L16.0517 18.2511L7.39977 12.7726C6.65427 12.9918 5.77574 13.9928 5.74246 15.1208L5.73486 20.4601C5.73486 21.1965 6.0418 21.7953 6.50446 22.0901L22.7871 32.5313C22.7809 32.5273 22.7763 32.5233 22.7703 32.5192C23.0712 32.7392 23.4246 32.8556 23.7924 32.8556C23.8892 32.8556 23.9875 32.8479 24.0858 32.8314L47.8365 29.0056C47.9369 28.9896 48.0332 28.9539 48.1199 28.9006C48.2065 28.8472 48.2817 28.7774 48.3413 28.6949C48.4009 28.6125 48.4436 28.5191 48.467 28.4201C48.4904 28.3211 48.494 28.2184 48.4776 28.1181C48.4112 27.6956 48.0014 27.409 47.5916 27.4772Z" fill="#E63431"/>
<path d="M37.329 17.3581L17.8364 20.4662C17.785 20.4102 17.7321 20.287 17.7321 20.1055L17.7381 15.768C17.7381 15.5775 17.7986 15.3832 17.906 15.2312C17.9967 15.1026 18.092 15.0467 18.1404 15.0383L37.5846 11.9053C37.685 11.8892 37.7813 11.8535 37.8679 11.8002C37.9545 11.7468 38.0297 11.6769 38.0893 11.5945C38.1488 11.512 38.1915 11.4186 38.2149 11.3197C38.2384 11.2207 38.242 11.1181 38.2257 11.0177C38.1576 10.5951 37.751 10.307 37.3396 10.3765C37.3396 10.3765 17.5633 13.5927 17.4106 13.668L4.44667 5.46008C3.8373 5.63849 3.11758 6.45815 3.0903 7.38046L3.04492 11.9478C3.04492 12.5541 3.29598 13.044 3.67548 13.286C3.67548 13.286 16.8592 21.7812 17.4131 21.9696C17.7178 22.0731 18.0466 22.0342 18.1313 22.0214L37.574 18.8868C37.6744 18.8707 37.7707 18.835 37.8573 18.7816C37.9439 18.7283 38.0191 18.6584 38.0787 18.5759C38.1382 18.4935 38.1809 18.4001 38.2043 18.3011C38.2278 18.2022 38.2314 18.0995 38.2151 17.9991C38.147 17.5765 37.7417 17.2885 37.329 17.3581Z" fill="#006AB3"/>
</g>
<defs>
<clipPath id="clip0_6191_267">
<rect width="48" height="48" fill="white" transform="translate(0.5)"/>
</clipPath>
</defs>
</svg>
