<svg width="16" height="16" viewBox="0 0 16 16" fill="none" xmlns="http://www.w3.org/2000/svg">
<path d="M15.0423 2.05252C14.8527 1.86972 14.6285 1.72673 14.3828 1.632C14.1371 1.53727 13.8749 1.49272 13.6117 1.50097C11.3638 1.57557 9.53451 2.06425 8.17109 2.9543C8.06625 3.02271 7.94377 3.05914 7.81859 3.05914C7.69341 3.05914 7.57093 3.02271 7.46609 2.9543C6.10365 2.06458 4.27338 1.5759 2.02545 1.50129C1.76225 1.49257 1.49998 1.53691 1.25427 1.63166C1.00857 1.72642 0.78444 1.86966 0.595249 2.05285C0.40626 2.23443 0.25607 2.45246 0.153763 2.69375C0.0514565 2.93504 -0.000840085 3.19458 3.69733e-05 3.45667V11.9444C-0.00308794 12.451 0.191981 12.9387 0.543581 13.3033C0.89518 13.668 1.37544 13.8808 1.88178 13.8962C3.86908 13.9613 5.52277 14.4011 6.79823 15.2068C7.10432 15.3984 7.45814 15.5 7.81924 15.5C8.18035 15.5 8.53417 15.3984 8.84026 15.2068C10.1151 14.4011 11.7691 13.9604 13.7561 13.8962C14.2624 13.8808 14.7427 13.668 15.0943 13.3033C15.4459 12.9387 15.6409 12.451 15.6378 11.9444V3.45667C15.6387 3.1945 15.5863 2.93489 15.484 2.69354C15.3816 2.45219 15.2313 2.23412 15.0423 2.05252ZM1.92381 12.5934C1.75687 12.5854 1.59936 12.5136 1.48385 12.3928C1.36834 12.2721 1.30366 12.1115 1.30318 11.9444V3.45667C1.30299 3.36931 1.3205 3.28281 1.35466 3.20241C1.38881 3.122 1.43891 3.04935 1.50191 2.98884C1.62466 2.86935 1.78932 2.80269 1.96062 2.80314H1.98277C3.98832 2.86829 5.59347 3.28758 6.75359 4.04471C6.88306 4.12754 7.02196 4.19458 7.16734 4.24442V13.9167C5.55308 13.0558 3.75325 12.6016 1.92381 12.5934ZM14.3347 11.9444C14.3342 12.1112 14.2697 12.2716 14.1546 12.3923C14.0394 12.5131 13.8823 12.585 13.7157 12.5934C11.8856 12.6012 10.0851 13.0556 8.47049 13.917V4.24474C8.61582 4.19477 8.75471 4.12774 8.88424 4.04504C10.0444 3.28791 11.6495 2.86992 13.6547 2.80346C13.7434 2.79931 13.832 2.81364 13.9148 2.84556C13.9977 2.87747 14.073 2.92626 14.1359 2.98884C14.1989 3.04935 14.249 3.122 14.2832 3.20241C14.3173 3.28281 14.3348 3.36931 14.3347 3.45667V11.9444Z" fill="#777980"/>
</svg>
