<svg width="14" height="15" viewBox="0 0 14 15" fill="none" xmlns="http://www.w3.org/2000/svg">
<g clip-path="url(#clip0_6191_1059)">
<path d="M3.44531 6.78906C3.14328 6.78906 2.89844 6.54422 2.89844 6.24219C2.89844 5.94016 3.14328 5.69531 3.44531 5.69531C3.74734 5.69531 3.99219 5.94016 3.99219 6.24219C3.99219 6.54422 3.74734 6.78906 3.44531 6.78906Z" fill="#A5A5AB"/>
<path d="M2.1875 1.59375H2.89844V1.04688C2.89844 0.744836 3.14327 0.5 3.44531 0.5C3.74735 0.5 3.99219 0.744836 3.99219 1.04688V1.59375H6.48047V1.04688C6.48047 0.744836 6.7253 0.5 7.02734 0.5C7.32938 0.5 7.57422 0.744836 7.57422 1.04688V1.59375H10.0352V1.04688C10.0352 0.744836 10.28 0.5 10.582 0.5C10.8841 0.5 11.1289 0.744836 11.1289 1.04688V1.59375H11.8125C13.0187 1.59375 14 2.57506 14 3.78125V12.3125C14 13.5187 13.0187 14.5 11.8125 14.5H7.62891C7.32687 14.5 7.08203 14.2552 7.08203 13.9531C7.08203 13.6511 7.32687 13.4062 7.62891 13.4062H11.8125C12.4156 13.4062 12.9062 12.9156 12.9062 12.3125V3.78125C12.9062 3.17816 12.4156 2.6875 11.8125 2.6875H11.1289V3.23438C11.1289 3.53641 10.8841 3.78125 10.582 3.78125C10.28 3.78125 10.0352 3.53641 10.0352 3.23438V2.6875H7.57422V3.23438C7.57422 3.53641 7.32938 3.78125 7.02734 3.78125C6.7253 3.78125 6.48047 3.53641 6.48047 3.23438V2.6875H3.99219V3.23438C3.99219 3.53641 3.74735 3.78125 3.44531 3.78125C3.14327 3.78125 2.89844 3.53641 2.89844 3.23438V2.6875H2.1875C1.58441 2.6875 1.09375 3.17816 1.09375 3.78125V6.89844C1.09375 7.20048 0.848914 7.44531 0.546875 7.44531C0.244836 7.44531 0 7.20048 0 6.89844V3.78125C0 2.57506 0.981313 1.59375 2.1875 1.59375Z" fill="#A5A5AB"/>
<path d="M3.30859 7.88281C5.13297 7.88281 6.61719 9.36703 6.61719 11.1914C6.61719 13.0158 5.13297 14.5 3.30859 14.5C1.48422 14.5 0 13.0158 0 11.1914C0 9.36703 1.48422 7.88281 3.30859 7.88281ZM3.30859 13.4062C4.52985 13.4062 5.52344 12.4127 5.52344 11.1914C5.52344 9.97012 4.52985 8.97656 3.30859 8.97656C2.08734 8.97656 1.09375 9.97012 1.09375 11.1914C1.09375 12.4127 2.08734 13.4062 3.30859 13.4062Z" fill="#A5A5AB"/>
<path d="M2.51562 10.6445H2.76172V10.0703C2.76172 9.76827 3.00655 9.52344 3.30859 9.52344C3.61063 9.52344 3.85547 9.76827 3.85547 10.0703V11.1914C3.85547 11.4934 3.61063 11.7383 3.30859 11.7383H2.51562C2.21359 11.7383 1.96875 11.4934 1.96875 11.1914C1.96875 10.8894 2.21359 10.6445 2.51562 10.6445Z" fill="#A5A5AB"/>
<path d="M5.82422 6.78906C5.52219 6.78906 5.27734 6.54422 5.27734 6.24219C5.27734 5.94016 5.52219 5.69531 5.82422 5.69531C6.12625 5.69531 6.37109 5.94016 6.37109 6.24219C6.37109 6.54422 6.12625 6.78906 5.82422 6.78906Z" fill="#A5A5AB"/>
<path d="M8.20312 9.16797C7.90109 9.16797 7.65625 8.92312 7.65625 8.62109C7.65625 8.31906 7.90109 8.07422 8.20312 8.07422C8.50516 8.07422 8.75 8.31906 8.75 8.62109C8.75 8.92312 8.50516 9.16797 8.20312 9.16797Z" fill="#A5A5AB"/>
<path d="M10.582 6.78906C10.28 6.78906 10.0352 6.54422 10.0352 6.24219C10.0352 5.94016 10.28 5.69531 10.582 5.69531C10.8841 5.69531 11.1289 5.94016 11.1289 6.24219C11.1289 6.54422 10.8841 6.78906 10.582 6.78906Z" fill="#A5A5AB"/>
<path d="M10.582 9.16797C10.28 9.16797 10.0352 8.92312 10.0352 8.62109C10.0352 8.31906 10.28 8.07422 10.582 8.07422C10.8841 8.07422 11.1289 8.31906 11.1289 8.62109C11.1289 8.92312 10.8841 9.16797 10.582 9.16797Z" fill="#A5A5AB"/>
<path d="M10.582 11.5469C10.28 11.5469 10.0352 11.302 10.0352 11C10.0352 10.698 10.28 10.4531 10.582 10.4531C10.8841 10.4531 11.1289 10.698 11.1289 11C11.1289 11.302 10.8841 11.5469 10.582 11.5469Z" fill="#A5A5AB"/>
<path d="M8.20312 11.5469C7.90109 11.5469 7.65625 11.302 7.65625 11C7.65625 10.698 7.90109 10.4531 8.20312 10.4531C8.50516 10.4531 8.75 10.698 8.75 11C8.75 11.302 8.50516 11.5469 8.20312 11.5469Z" fill="#A5A5AB"/>
<path d="M8.20312 6.78906C7.90109 6.78906 7.65625 6.54422 7.65625 6.24219C7.65625 5.94016 7.90109 5.69531 8.20312 5.69531C8.50516 5.69531 8.75 5.94016 8.75 6.24219C8.75 6.54422 8.50516 6.78906 8.20312 6.78906Z" fill="#A5A5AB"/>
</g>
<defs>
<clipPath id="clip0_6191_1059">
<rect width="14" height="14" fill="white" transform="matrix(-1 0 0 1 14 0.5)"/>
</clipPath>
</defs>
</svg>
