<svg width="14" height="14" viewBox="0 0 14 14" fill="none" xmlns="http://www.w3.org/2000/svg">
<g clip-path="url(#clip0_6226_283)">
<path d="M3.44531 6.28906C3.14328 6.28906 2.89844 6.04422 2.89844 5.74219C2.89844 5.44016 3.14328 5.19531 3.44531 5.19531C3.74734 5.19531 3.99219 5.44016 3.99219 5.74219C3.99219 6.04422 3.74734 6.28906 3.44531 6.28906Z" fill="#777980"/>
<path d="M2.1875 1.09375H2.89844V0.546875C2.89844 0.244836 3.14327 0 3.44531 0C3.74735 0 3.99219 0.244836 3.99219 0.546875V1.09375H6.48047V0.546875C6.48047 0.244836 6.7253 0 7.02734 0C7.32938 0 7.57422 0.244836 7.57422 0.546875V1.09375H10.0352V0.546875C10.0352 0.244836 10.28 0 10.582 0C10.8841 0 11.1289 0.244836 11.1289 0.546875V1.09375H11.8125C13.0187 1.09375 14 2.07506 14 3.28125V11.8125C14 13.0187 13.0187 14 11.8125 14H7.62891C7.32687 14 7.08203 13.7552 7.08203 13.4531C7.08203 13.1511 7.32687 12.9062 7.62891 12.9062H11.8125C12.4156 12.9062 12.9062 12.4156 12.9062 11.8125V3.28125C12.9062 2.67816 12.4156 2.1875 11.8125 2.1875H11.1289V2.73438C11.1289 3.03641 10.8841 3.28125 10.582 3.28125C10.28 3.28125 10.0352 3.03641 10.0352 2.73438V2.1875H7.57422V2.73438C7.57422 3.03641 7.32938 3.28125 7.02734 3.28125C6.7253 3.28125 6.48047 3.03641 6.48047 2.73438V2.1875H3.99219V2.73438C3.99219 3.03641 3.74735 3.28125 3.44531 3.28125C3.14327 3.28125 2.89844 3.03641 2.89844 2.73438V2.1875H2.1875C1.58441 2.1875 1.09375 2.67816 1.09375 3.28125V6.39844C1.09375 6.70048 0.848914 6.94531 0.546875 6.94531C0.244836 6.94531 0 6.70048 0 6.39844V3.28125C0 2.07506 0.981313 1.09375 2.1875 1.09375Z" fill="#777980"/>
<path d="M3.30859 7.38281C5.13297 7.38281 6.61719 8.86703 6.61719 10.6914C6.61719 12.5158 5.13297 14 3.30859 14C1.48422 14 0 12.5158 0 10.6914C0 8.86703 1.48422 7.38281 3.30859 7.38281ZM3.30859 12.9062C4.52985 12.9062 5.52344 11.9127 5.52344 10.6914C5.52344 9.47012 4.52985 8.47656 3.30859 8.47656C2.08734 8.47656 1.09375 9.47012 1.09375 10.6914C1.09375 11.9127 2.08734 12.9062 3.30859 12.9062Z" fill="#777980"/>
<path d="M2.51562 10.1445H2.76172V9.57031C2.76172 9.26827 3.00655 9.02344 3.30859 9.02344C3.61063 9.02344 3.85547 9.26827 3.85547 9.57031V10.6914C3.85547 10.9934 3.61063 11.2383 3.30859 11.2383H2.51562C2.21359 11.2383 1.96875 10.9934 1.96875 10.6914C1.96875 10.3894 2.21359 10.1445 2.51562 10.1445Z" fill="#777980"/>
<path d="M5.82422 6.28906C5.52219 6.28906 5.27734 6.04422 5.27734 5.74219C5.27734 5.44016 5.52219 5.19531 5.82422 5.19531C6.12625 5.19531 6.37109 5.44016 6.37109 5.74219C6.37109 6.04422 6.12625 6.28906 5.82422 6.28906Z" fill="#777980"/>
<path d="M8.20312 8.66797C7.90109 8.66797 7.65625 8.42312 7.65625 8.12109C7.65625 7.81906 7.90109 7.57422 8.20312 7.57422C8.50516 7.57422 8.75 7.81906 8.75 8.12109C8.75 8.42312 8.50516 8.66797 8.20312 8.66797Z" fill="#777980"/>
<path d="M10.582 6.28906C10.28 6.28906 10.0352 6.04422 10.0352 5.74219C10.0352 5.44016 10.28 5.19531 10.582 5.19531C10.8841 5.19531 11.1289 5.44016 11.1289 5.74219C11.1289 6.04422 10.8841 6.28906 10.582 6.28906Z" fill="#777980"/>
<path d="M10.582 8.66797C10.28 8.66797 10.0352 8.42312 10.0352 8.12109C10.0352 7.81906 10.28 7.57422 10.582 7.57422C10.8841 7.57422 11.1289 7.81906 11.1289 8.12109C11.1289 8.42312 10.8841 8.66797 10.582 8.66797Z" fill="#777980"/>
<path d="M10.582 11.0469C10.28 11.0469 10.0352 10.802 10.0352 10.5C10.0352 10.198 10.28 9.95312 10.582 9.95312C10.8841 9.95312 11.1289 10.198 11.1289 10.5C11.1289 10.802 10.8841 11.0469 10.582 11.0469Z" fill="#777980"/>
<path d="M8.20312 11.0469C7.90109 11.0469 7.65625 10.802 7.65625 10.5C7.65625 10.198 7.90109 9.95312 8.20312 9.95312C8.50516 9.95312 8.75 10.198 8.75 10.5C8.75 10.802 8.50516 11.0469 8.20312 11.0469Z" fill="#777980"/>
<path d="M8.20312 6.28906C7.90109 6.28906 7.65625 6.04422 7.65625 5.74219C7.65625 5.44016 7.90109 5.19531 8.20312 5.19531C8.50516 5.19531 8.75 5.44016 8.75 5.74219C8.75 6.04422 8.50516 6.28906 8.20312 6.28906Z" fill="#777980"/>
</g>
<defs>
<clipPath id="clip0_6226_283">
<rect width="14" height="14" fill="white" transform="matrix(-1 0 0 1 14 0)"/>
</clipPath>
</defs>
</svg>
