<svg width="16" height="17" viewBox="0 0 16 17" fill="none" xmlns="http://www.w3.org/2000/svg">
<path d="M15.0423 2.55252C14.8527 2.36972 14.6285 2.22673 14.3828 2.132C14.1371 2.03727 13.8749 1.99272 13.6117 2.00097C11.3638 2.07557 9.53451 2.56425 8.17109 3.4543C8.06625 3.52271 7.94377 3.55914 7.81859 3.55914C7.69341 3.55914 7.57093 3.52271 7.46609 3.4543C6.10365 2.56458 4.27338 2.0759 2.02545 2.00129C1.76225 1.99257 1.49998 2.03691 1.25427 2.13166C1.00857 2.22642 0.78444 2.36966 0.595249 2.55285C0.40626 2.73443 0.25607 2.95246 0.153763 3.19375C0.0514565 3.43504 -0.000840085 3.69458 3.69733e-05 3.95667V12.4444C-0.00308794 12.951 0.191981 13.4387 0.543581 13.8033C0.89518 14.168 1.37544 14.3808 1.88178 14.3962C3.86908 14.4613 5.52277 14.9011 6.79823 15.7068C7.10432 15.8984 7.45814 16 7.81924 16C8.18035 16 8.53417 15.8984 8.84026 15.7068C10.1151 14.9011 11.7691 14.4604 13.7561 14.3962C14.2624 14.3808 14.7427 14.168 15.0943 13.8033C15.4459 13.4387 15.6409 12.951 15.6378 12.4444V3.95667C15.6387 3.6945 15.5863 3.43489 15.484 3.19354C15.3816 2.95219 15.2313 2.73412 15.0423 2.55252ZM1.92381 13.0934C1.75687 13.0854 1.59936 13.0136 1.48385 12.8928C1.36834 12.7721 1.30366 12.6115 1.30318 12.4444V3.95667C1.30299 3.86931 1.3205 3.78281 1.35466 3.70241C1.38881 3.622 1.43891 3.54935 1.50191 3.48884C1.62466 3.36935 1.78932 3.30269 1.96062 3.30314H1.98277C3.98832 3.36829 5.59347 3.78758 6.75359 4.54471C6.88306 4.62754 7.02196 4.69458 7.16734 4.74442V14.4167C5.55308 13.5558 3.75325 13.1016 1.92381 13.0934ZM14.3347 12.4444C14.3342 12.6112 14.2697 12.7716 14.1546 12.8923C14.0394 13.0131 13.8823 13.085 13.7157 13.0934C11.8856 13.1012 10.0851 13.5556 8.47049 14.417V4.74474C8.61582 4.69477 8.75471 4.62774 8.88424 4.54504C10.0444 3.78791 11.6495 3.36992 13.6547 3.30346C13.7434 3.29931 13.832 3.31364 13.9148 3.34556C13.9977 3.37747 14.073 3.42626 14.1359 3.48884C14.1989 3.54935 14.249 3.622 14.2832 3.70241C14.3173 3.78281 14.3348 3.86931 14.3347 3.95667V12.4444Z" fill="#777980"/>
</svg>
