<svg width="64" height="17" viewBox="0 0 64 17" fill="none" xmlns="http://www.w3.org/2000/svg">
<path d="M15.0423 2.55252C14.8527 2.36972 14.6285 2.22673 14.3828 2.132C14.1371 2.03727 13.8749 1.99272 13.6117 2.00097C11.3638 2.07557 9.53451 2.56425 8.17109 3.4543C8.06625 3.52271 7.94377 3.55914 7.81859 3.55914C7.69341 3.55914 7.57093 3.52271 7.46609 3.4543C6.10365 2.56458 4.27338 2.0759 2.02545 2.00129C1.76225 1.99257 1.49998 2.03691 1.25427 2.13166C1.00857 2.22642 0.78444 2.36966 0.595249 2.55285C0.40626 2.73443 0.25607 2.95246 0.153763 3.19375C0.0514565 3.43504 -0.000840085 3.69458 3.69733e-05 3.95667V12.4444C-0.00308794 12.951 0.191981 13.4387 0.543581 13.8033C0.89518 14.168 1.37544 14.3808 1.88178 14.3962C3.86908 14.4613 5.52277 14.9011 6.79823 15.7068C7.10432 15.8984 7.45814 16 7.81924 16C8.18035 16 8.53417 15.8984 8.84026 15.7068C10.1151 14.9011 11.7691 14.4604 13.7561 14.3962C14.2624 14.3808 14.7427 14.168 15.0943 13.8033C15.4459 13.4387 15.6409 12.951 15.6378 12.4444V3.95667C15.6387 3.6945 15.5863 3.43489 15.484 3.19354C15.3816 2.95219 15.2313 2.73412 15.0423 2.55252ZM1.92381 13.0934C1.75687 13.0854 1.59936 13.0136 1.48385 12.8928C1.36834 12.7721 1.30366 12.6115 1.30318 12.4444V3.95667C1.30299 3.86931 1.3205 3.78281 1.35466 3.70241C1.38881 3.622 1.43891 3.54935 1.50191 3.48884C1.62466 3.36935 1.78932 3.30269 1.96062 3.30314H1.98277C3.98832 3.36829 5.59347 3.78758 6.75359 4.54471C6.88306 4.62754 7.02196 4.69458 7.16734 4.74442V14.4167C5.55308 13.5558 3.75325 13.1016 1.92381 13.0934ZM14.3347 12.4444C14.3342 12.6112 14.2697 12.7716 14.1546 12.8923C14.0394 13.0131 13.8823 13.085 13.7157 13.0934C11.8856 13.1012 10.0851 13.5556 8.47049 14.417V4.74474C8.61582 4.69477 8.75471 4.62774 8.88424 4.54504C10.0444 3.78791 11.6495 3.36992 13.6547 3.30346C13.7434 3.29931 13.832 3.31364 13.9148 3.34556C13.9977 3.37747 14.073 3.42626 14.1359 3.48884C14.1989 3.54935 14.249 3.622 14.2832 3.70241C14.3173 3.78281 14.3348 3.86931 14.3347 3.95667V12.4444Z" fill="#777980"/>
<path d="M28.1406 10.2871H29.2656C29.207 10.8262 29.0527 11.3086 28.8027 11.7344C28.5527 12.1602 28.1992 12.498 27.7422 12.748C27.2852 12.9941 26.7148 13.1172 26.0312 13.1172C25.5312 13.1172 25.0762 13.0234 24.666 12.8359C24.2598 12.6484 23.9102 12.3828 23.6172 12.0391C23.3242 11.6914 23.0977 11.2754 22.9375 10.791C22.7812 10.3027 22.7031 9.75977 22.7031 9.16211V8.3125C22.7031 7.71484 22.7812 7.17383 22.9375 6.68945C23.0977 6.20117 23.3262 5.7832 23.623 5.43555C23.9238 5.08789 24.2852 4.82031 24.707 4.63281C25.1289 4.44531 25.6035 4.35156 26.1309 4.35156C26.7754 4.35156 27.3203 4.47266 27.7656 4.71484C28.2109 4.95703 28.5566 5.29297 28.8027 5.72266C29.0527 6.14844 29.207 6.64258 29.2656 7.20508H28.1406C28.0859 6.80664 27.9844 6.46484 27.8359 6.17969C27.6875 5.89062 27.4766 5.66797 27.2031 5.51172C26.9297 5.35547 26.5723 5.27734 26.1309 5.27734C25.752 5.27734 25.418 5.34961 25.1289 5.49414C24.8438 5.63867 24.6035 5.84375 24.4082 6.10938C24.2168 6.375 24.0723 6.69336 23.9746 7.06445C23.877 7.43555 23.8281 7.84766 23.8281 8.30078V9.16211C23.8281 9.58008 23.8711 9.97266 23.957 10.3398C24.0469 10.707 24.1816 11.0293 24.3613 11.3066C24.541 11.584 24.7695 11.8027 25.0469 11.9629C25.3242 12.1191 25.6523 12.1973 26.0312 12.1973C26.5117 12.1973 26.8945 12.1211 27.1797 11.9688C27.4648 11.8164 27.6797 11.5977 27.8242 11.3125C27.9727 11.0273 28.0781 10.6855 28.1406 10.2871ZM34.5215 11.5352V6.66016H35.6113V13H34.5742L34.5215 11.5352ZM34.7266 10.1992L35.1777 10.1875C35.1777 10.6094 35.1328 11 35.043 11.3594C34.957 11.7148 34.8164 12.0234 34.6211 12.2852C34.4258 12.5469 34.1699 12.752 33.8535 12.9004C33.5371 13.0449 33.1523 13.1172 32.6992 13.1172C32.3906 13.1172 32.1074 13.0723 31.8496 12.9824C31.5957 12.8926 31.377 12.7539 31.1934 12.5664C31.0098 12.3789 30.8672 12.1348 30.7656 11.834C30.668 11.5332 30.6191 11.1719 30.6191 10.75V6.66016H31.7031V10.7617C31.7031 11.0469 31.7344 11.2832 31.7969 11.4707C31.8633 11.6543 31.9512 11.8008 32.0605 11.9102C32.1738 12.0156 32.2988 12.0898 32.4355 12.1328C32.5762 12.1758 32.7207 12.1973 32.8691 12.1973C33.3301 12.1973 33.6953 12.1094 33.9648 11.9336C34.2344 11.7539 34.4277 11.5137 34.5449 11.2129C34.666 10.9082 34.7266 10.5703 34.7266 10.1992ZM40.9551 11.3184C40.9551 11.1621 40.9199 11.0176 40.8496 10.8848C40.7832 10.748 40.6445 10.625 40.4336 10.5156C40.2266 10.4023 39.9141 10.3047 39.4961 10.2227C39.1445 10.1484 38.8262 10.0605 38.541 9.95898C38.2598 9.85742 38.0195 9.73438 37.8203 9.58984C37.625 9.44531 37.4746 9.27539 37.3691 9.08008C37.2637 8.88477 37.2109 8.65625 37.2109 8.39453C37.2109 8.14453 37.2656 7.9082 37.375 7.68555C37.4883 7.46289 37.6465 7.26562 37.8496 7.09375C38.0566 6.92188 38.3047 6.78711 38.5938 6.68945C38.8828 6.5918 39.2051 6.54297 39.5605 6.54297C40.0684 6.54297 40.502 6.63281 40.8613 6.8125C41.2207 6.99219 41.4961 7.23242 41.6875 7.5332C41.8789 7.83008 41.9746 8.16016 41.9746 8.52344H40.8906C40.8906 8.34766 40.8379 8.17773 40.7324 8.01367C40.6309 7.8457 40.4805 7.70703 40.2812 7.59766C40.0859 7.48828 39.8457 7.43359 39.5605 7.43359C39.2598 7.43359 39.0156 7.48047 38.8281 7.57422C38.6445 7.66406 38.5098 7.7793 38.4238 7.91992C38.3418 8.06055 38.3008 8.20898 38.3008 8.36523C38.3008 8.48242 38.3203 8.58789 38.3594 8.68164C38.4023 8.77148 38.4766 8.85547 38.582 8.93359C38.6875 9.00781 38.8359 9.07812 39.0273 9.14453C39.2188 9.21094 39.4629 9.27734 39.7598 9.34375C40.2793 9.46094 40.707 9.60156 41.043 9.76562C41.3789 9.92969 41.6289 10.1309 41.793 10.3691C41.957 10.6074 42.0391 10.8965 42.0391 11.2363C42.0391 11.5137 41.9805 11.7676 41.8633 11.998C41.75 12.2285 41.584 12.4277 41.3652 12.5957C41.1504 12.7598 40.8926 12.8887 40.5918 12.9824C40.2949 13.0723 39.9609 13.1172 39.5898 13.1172C39.0312 13.1172 38.5586 13.0176 38.1719 12.8184C37.7852 12.6191 37.4922 12.3613 37.293 12.0449C37.0938 11.7285 36.9941 11.3945 36.9941 11.043H38.084C38.0996 11.3398 38.1855 11.5762 38.3418 11.752C38.498 11.9238 38.6895 12.0469 38.916 12.1211C39.1426 12.1914 39.3672 12.2266 39.5898 12.2266C39.8867 12.2266 40.1348 12.1875 40.334 12.1094C40.5371 12.0312 40.6914 11.9238 40.7969 11.7871C40.9023 11.6504 40.9551 11.4941 40.9551 11.3184ZM46.1172 6.66016V7.49219H42.6895V6.66016H46.1172ZM43.8496 5.11914H44.9336V11.4297C44.9336 11.6445 44.9668 11.8066 45.0332 11.916C45.0996 12.0254 45.1855 12.0977 45.291 12.1328C45.3965 12.168 45.5098 12.1855 45.6309 12.1855C45.7207 12.1855 45.8145 12.1777 45.9121 12.1621C46.0137 12.1426 46.0898 12.127 46.1406 12.1152L46.1465 13C46.0605 13.0273 45.9473 13.0527 45.8066 13.0762C45.6699 13.1035 45.5039 13.1172 45.3086 13.1172C45.043 13.1172 44.7988 13.0645 44.5762 12.959C44.3535 12.8535 44.1758 12.6777 44.043 12.4316C43.9141 12.1816 43.8496 11.8457 43.8496 11.4238V5.11914ZM46.9844 9.90039V9.76562C46.9844 9.30859 47.0508 8.88477 47.1836 8.49414C47.3164 8.09961 47.5078 7.75781 47.7578 7.46875C48.0078 7.17578 48.3105 6.94922 48.666 6.78906C49.0215 6.625 49.4199 6.54297 49.8613 6.54297C50.3066 6.54297 50.707 6.625 51.0625 6.78906C51.4219 6.94922 51.7266 7.17578 51.9766 7.46875C52.2305 7.75781 52.4238 8.09961 52.5566 8.49414C52.6895 8.88477 52.7559 9.30859 52.7559 9.76562V9.90039C52.7559 10.3574 52.6895 10.7812 52.5566 11.1719C52.4238 11.5625 52.2305 11.9043 51.9766 12.1973C51.7266 12.4863 51.4238 12.7129 51.0684 12.877C50.7168 13.0371 50.3184 13.1172 49.873 13.1172C49.4277 13.1172 49.0273 13.0371 48.6719 12.877C48.3164 12.7129 48.0117 12.4863 47.7578 12.1973C47.5078 11.9043 47.3164 11.5625 47.1836 11.1719C47.0508 10.7812 46.9844 10.3574 46.9844 9.90039ZM48.0684 9.76562V9.90039C48.0684 10.2168 48.1055 10.5156 48.1797 10.7969C48.2539 11.0742 48.3652 11.3203 48.5137 11.5352C48.666 11.75 48.8555 11.9199 49.082 12.0449C49.3086 12.166 49.5723 12.2266 49.873 12.2266C50.1699 12.2266 50.4297 12.166 50.6523 12.0449C50.8789 11.9199 51.0664 11.75 51.2148 11.5352C51.3633 11.3203 51.4746 11.0742 51.5488 10.7969C51.627 10.5156 51.666 10.2168 51.666 9.90039V9.76562C51.666 9.45312 51.627 9.1582 51.5488 8.88086C51.4746 8.59961 51.3613 8.35156 51.209 8.13672C51.0605 7.91797 50.873 7.74609 50.6465 7.62109C50.4238 7.49609 50.1621 7.43359 49.8613 7.43359C49.5645 7.43359 49.3027 7.49609 49.0762 7.62109C48.8535 7.74609 48.666 7.91797 48.5137 8.13672C48.3652 8.35156 48.2539 8.59961 48.1797 8.88086C48.1055 9.1582 48.0684 9.45312 48.0684 9.76562ZM55.1934 7.91992V13H54.1035V6.66016H55.1348L55.1934 7.91992ZM54.9707 9.58984L54.4668 9.57227C54.4707 9.13867 54.5273 8.73828 54.6367 8.37109C54.7461 8 54.9082 7.67773 55.123 7.4043C55.3379 7.13086 55.6055 6.91992 55.9258 6.77148C56.2461 6.61914 56.6172 6.54297 57.0391 6.54297C57.3359 6.54297 57.6094 6.58594 57.8594 6.67188C58.1094 6.75391 58.3262 6.88477 58.5098 7.06445C58.6934 7.24414 58.8359 7.47461 58.9375 7.75586C59.0391 8.03711 59.0898 8.37695 59.0898 8.77539V13H58.0059V8.82812C58.0059 8.49609 57.9492 8.23047 57.8359 8.03125C57.7266 7.83203 57.5703 7.6875 57.3672 7.59766C57.1641 7.50391 56.9258 7.45703 56.6523 7.45703C56.332 7.45703 56.0645 7.51367 55.8496 7.62695C55.6348 7.74023 55.4629 7.89648 55.334 8.0957C55.2051 8.29492 55.1113 8.52344 55.0527 8.78125C54.998 9.03516 54.9707 9.30469 54.9707 9.58984ZM59.0781 8.99219L58.3516 9.21484C58.3555 8.86719 58.4121 8.5332 58.5215 8.21289C58.6348 7.89258 58.7969 7.60742 59.0078 7.35742C59.2227 7.10742 59.4863 6.91016 59.7988 6.76562C60.1113 6.61719 60.4688 6.54297 60.8711 6.54297C61.2109 6.54297 61.5117 6.58789 61.7734 6.67773C62.0391 6.76758 62.2617 6.90625 62.4414 7.09375C62.625 7.27734 62.7637 7.51367 62.8574 7.80273C62.9512 8.0918 62.998 8.43555 62.998 8.83398V13H61.9082V8.82227C61.9082 8.4668 61.8516 8.19141 61.7383 7.99609C61.6289 7.79688 61.4727 7.6582 61.2695 7.58008C61.0703 7.49805 60.832 7.45703 60.5547 7.45703C60.3164 7.45703 60.1055 7.49805 59.9219 7.58008C59.7383 7.66211 59.584 7.77539 59.459 7.91992C59.334 8.06055 59.2383 8.22266 59.1719 8.40625C59.1094 8.58984 59.0781 8.78516 59.0781 8.99219Z" fill="#070707"/>
</svg>
