<svg width="12" height="13" viewBox="0 0 12 13" fill="none" xmlns="http://www.w3.org/2000/svg">
<g clip-path="url(#clip0_6192_1610)">
<path fill-rule="evenodd" clip-rule="evenodd" d="M10.7032 8.5025C10.7032 6.9825 9.82315 5.115 9.23065 4.03L8.70315 3.1375C8.75256 3.48041 8.73301 3.82974 8.64565 4.165C8.53097 4.45917 8.35548 4.72582 8.13065 4.9475C8.10504 4.17371 7.87658 3.42022 7.46815 2.7625C7.39065 2.6475 7.19315 2.33425 6.97315 2.055C6.53916 1.50196 6.00273 1.03767 5.39315 0.6875C5.60651 1.1287 5.73459 1.60625 5.77065 2.095C5.75315 2.67 5.57065 3.015 4.70815 4.14C3.84565 5.265 4.05815 6.9425 4.05815 6.9425C3.98925 6.70812 3.89538 6.48183 3.77815 6.2675C3.55315 5.83 2.63565 5.315 2.57815 5.285C2.60315 5.3475 3.01565 6.375 2.45315 7.0725C1.73815 7.965 1.16565 8.63 1.32315 9.965C1.52315 11.6625 3.45565 12.1375 4.34315 12.265H4.34565C4.61315 12.305 4.78315 12.3125 4.78315 12.3125C4.1989 12.1125 3.8659 11.3775 3.8199 10.9733C3.78416 10.743 3.79873 10.5077 3.8626 10.2836C3.92647 10.0595 4.03813 9.85184 4.1899 9.675C4.3089 9.512 4.74865 9.075 4.89665 8.925C5.28472 8.59367 5.55504 8.14556 5.66715 7.64775C5.72754 7.29969 5.7384 6.94485 5.6994 6.59375C6.11085 6.85477 6.45943 7.20361 6.72015 7.61525C6.92347 7.93781 7.03633 8.3091 7.0469 8.69025C7.1576 8.5806 7.24405 8.44892 7.30065 8.30375C7.34368 8.13753 7.35294 7.96437 7.3279 7.7945C7.3279 7.7945 8.3419 9.1945 8.3134 10.4385C8.27765 11.9975 7.3134 12.3118 7.3119 12.3135C7.32215 12.311 10.7032 11.8895 10.7032 8.5025Z" fill="black"/>
</g>
<defs>
<clipPath id="clip0_6192_1610">
<rect width="12" height="12" fill="white" transform="translate(0 0.5)"/>
</clipPath>
</defs>
</svg>
