<svg width="12" height="13" viewBox="0 0 12 13" fill="none" xmlns="http://www.w3.org/2000/svg">
<g clip-path="url(#clip0_6192_1603)">
<path d="M7.43922 10.839C7.45351 10.9416 7.38203 11.0363 7.27961 11.0506C6.89711 11.1041 6.54812 11.131 6.22515 11.131C5.77 11.131 5.36617 11.0776 4.99258 10.97C4.18797 10.7382 3.5343 10.2387 3.04961 9.48546C2.99359 9.39827 3.01867 9.28226 3.10586 9.22624C3.19305 9.17023 3.30906 9.1953 3.36508 9.28249C4.37851 10.8577 5.96172 10.8563 7.22758 10.6791C7.33 10.6648 7.42469 10.7363 7.43922 10.839ZM11.2945 12.1384C10.8522 11.9612 10.4216 11.7242 10.2655 11.1938C10.251 11.1446 10.217 11.1036 10.1716 11.0801C10.1261 11.0567 10.0729 11.053 10.0244 11.0696C5.16976 12.7501 3.33625 11.2688 2.12289 10.2887C1.70148 9.94835 1.35812 9.67085 0.981248 9.60827C0.919842 9.18757 1.01594 8.67827 1.20765 7.92733L2.64555 2.2871L5.8068 0.917178L6.89336 2.30257L5.70226 3.65609L5.03992 3.16624C5.01704 3.14924 4.99056 3.13771 4.96252 3.13255C4.93449 3.12739 4.90564 3.12873 4.8782 3.13648L3.40656 3.54616C3.30672 3.57405 3.24836 3.67741 3.27625 3.77702C3.30414 3.87687 3.40726 3.93523 3.50711 3.90733L4.20531 3.71304L4.44133 7.17429C4.3239 7.28351 4.21586 7.40374 4.11859 7.53358C4.05648 7.61655 4.07359 7.73397 4.15656 7.79608C4.23953 7.85819 4.35695 7.84108 4.41906 7.75812C4.8632 7.16397 5.57265 6.80913 6.31703 6.80913C6.88914 6.80913 7.42164 7.00905 7.83812 7.35593C7.8468 7.36577 7.85641 7.37515 7.86742 7.38335C7.87117 7.38616 7.87492 7.38804 7.87891 7.39062C8.15992 7.63577 8.38516 7.94937 8.52859 8.31499C8.54237 8.35008 8.5664 8.38021 8.59754 8.40144C8.62869 8.42268 8.66551 8.43404 8.7032 8.43405C8.72594 8.43405 8.74914 8.42983 8.77164 8.42093C8.86797 8.38296 8.91555 8.27421 8.87758 8.17788C8.73494 7.81422 8.51613 7.4853 8.23586 7.21319C8.755 6.60382 9.52656 6.24452 10.3326 6.24452C10.6211 6.24452 10.9023 6.28718 11.1684 6.37132C11.267 6.40249 11.3725 6.34788 11.4037 6.24921C11.4348 6.15054 11.3802 6.04507 11.2816 6.0139C10.9787 5.91804 10.6595 5.86952 10.3326 5.86952C9.41664 5.86952 8.53984 6.27804 7.94992 6.97062C7.92812 6.95444 7.90609 6.93851 7.88383 6.92304C7.42281 6.60335 6.88094 6.43437 6.3168 6.43437C5.77211 6.43437 5.24336 6.59866 4.79805 6.89351L4.57398 3.61038L4.89039 3.52226L5.61765 4.06015C5.65542 4.08807 5.7023 4.1008 5.749 4.0958C5.7957 4.09081 5.83883 4.06847 5.86984 4.03319L7.27773 2.43335C7.30668 2.40051 7.32322 2.35857 7.32446 2.31481C7.3257 2.27106 7.31157 2.22824 7.28453 2.19382L6.01258 0.571944C5.98698 0.539316 5.95128 0.516096 5.91108 0.505918C5.87087 0.495739 5.82843 0.499178 5.79039 0.515694L2.41211 1.9796C2.38585 1.99098 2.36255 2.00822 2.34399 2.02999C2.32542 2.05177 2.31209 2.0775 2.305 2.10523L0.844608 7.83476C0.617498 8.72327 0.517889 9.30382 0.641405 9.82577C0.651141 9.86679 0.6744 9.90334 0.707434 9.92953C0.740469 9.95572 0.781357 9.97002 0.823514 9.97015C1.13265 9.97085 1.4657 10.2399 1.88734 10.5805C2.48617 11.0642 3.30625 11.7268 4.59789 12.0319C6.07469 12.3809 7.83414 12.2016 9.97234 11.4835C10.2152 12.0455 10.7247 12.3139 11.1552 12.4864C11.1782 12.4955 11.2016 12.5 11.2248 12.5C11.2991 12.5 11.3697 12.4555 11.399 12.3821C11.4374 12.286 11.3908 12.1768 11.2945 12.1384Z" fill="black"/>
<path d="M11.3989 12.2431V6.2618C11.3814 6.30586 11.3479 6.34167 11.3051 6.36198C11.2623 6.3823 11.2134 6.38561 11.1682 6.37125C10.9022 6.28711 10.621 6.24446 10.3325 6.24446C9.52644 6.24446 8.75487 6.60375 8.23573 7.21313C8.51593 7.4853 8.73472 7.81421 8.87745 8.17782C8.91542 8.27415 8.86784 8.38313 8.77151 8.42086C8.74901 8.42977 8.72581 8.43399 8.70308 8.43399C8.66537 8.434 8.62855 8.42264 8.5974 8.4014C8.56625 8.38016 8.54223 8.35003 8.52847 8.31493C8.38479 7.9493 8.15979 7.63571 7.87878 7.39055C7.87503 7.38821 7.87104 7.3861 7.86729 7.38329C7.85628 7.37508 7.84667 7.36594 7.838 7.35586C7.42151 7.00899 6.88878 6.80907 6.3169 6.80907C5.57276 6.80907 4.86331 7.16368 4.41893 7.75805C4.38914 7.79786 4.34476 7.82423 4.29554 7.83134C4.24632 7.83846 4.19629 7.82576 4.15643 7.79602C4.11662 7.76622 4.09026 7.72184 4.08314 7.67263C4.07602 7.62341 4.08873 7.57338 4.11847 7.53352C4.21573 7.40344 4.32378 7.28344 4.4412 7.17422L4.20518 3.71297L3.50698 3.90727C3.40714 3.93516 3.30378 3.87657 3.27612 3.77696C3.24847 3.67711 3.30683 3.57375 3.40643 3.5461L4.87808 3.13641C4.90552 3.12878 4.93435 3.12749 4.96237 3.13265C4.99039 3.1378 5.01686 3.14927 5.03979 3.16618L5.70214 3.65602L6.89323 2.30251L5.80667 0.917114L2.64565 2.28704L1.20776 7.92727C1.01581 8.67821 0.91995 9.18727 0.981357 9.60821C1.35823 9.67079 1.70159 9.94829 2.123 10.2886C3.33636 11.2688 5.16987 12.75 10.0245 11.0695C10.073 11.0529 10.1262 11.0566 10.1717 11.0801C10.2171 11.1035 10.2511 11.1448 10.2657 11.1938C10.4217 11.7241 10.8523 11.9611 11.2946 12.1383C11.344 12.1582 11.3803 12.1971 11.3989 12.2431ZM7.27925 11.0506C6.89675 11.104 6.54776 11.1309 6.22479 11.1309C5.76964 11.1309 5.36581 11.0775 4.99222 10.9699C4.18761 10.7381 3.53394 10.2387 3.04925 9.4854C2.99323 9.39821 3.01831 9.28219 3.1055 9.22618C3.19268 9.17016 3.3087 9.19524 3.36472 9.28243C4.37815 10.8577 5.96136 10.8563 7.22722 10.6791C7.32987 10.6648 7.42456 10.7363 7.43886 10.8387C7.45339 10.9413 7.3819 11.036 7.27925 11.0506Z" fill="#FED2A4"/>
<path d="M11.2251 12.5H11.399V12.3821C11.385 12.4168 11.361 12.4466 11.33 12.4676C11.2991 12.4886 11.2625 12.4998 11.2251 12.5Z" fill="#FF00FF"/>
</g>
<defs>
<clipPath id="clip0_6192_1603">
<rect width="12" height="12" fill="white" transform="translate(0 0.5)"/>
</clipPath>
</defs>
</svg>
